<svg xmlns="http://www.w3.org/2000/svg" width="15" height="20" viewBox="0 0 15 20">
    <path fill="#DAD9E2" fill-rule="nonzero" d="M7.5 2.5c.75 0 1.375.25 1.875.875l.875.875 1.875-1.625-.875-1C10.25.625 8.875 0 7.5 0c-2.75 0-5 2.25-5 5v1.875C1 8.25 0 10.25 0 12.5 0 16.625 3.375 20 7.5 20s7.5-3.375 7.5-7.5S11.625 5 7.5 5c-.875 0-1.75.125-2.5.5V5c0-1.375 1.125-2.5 2.5-2.5zm0 6.25c1.375 0 2.5 1.125 2.5 2.5 0 .875-.5 1.75-1.25 2.125v2.875h-2.5v-2.875C5.5 13 5 12.125 5 11.25c0-1.375 1.125-2.5 2.5-2.5z"/>
</svg>
